<mxfile host="app.diagrams.net" agent="Mozilla/5.0 (Windows NT 10.0; Win64; x64) AppleWebKit/537.36 (KHTML, like Gecko) Chrome/129.0.0.0 Safari/537.36" version="24.8.1">
  <diagram name="Página-1" id="CN4giUQgx4c2PsQp21FM">
    <mxGraphModel dx="6054" dy="2340" grid="1" gridSize="10" guides="1" tooltips="1" connect="1" arrows="1" fold="1" page="1" pageScale="1" pageWidth="827" pageHeight="1169" math="0" shadow="0">
      <root>
        <mxCell id="0" />
        <mxCell id="1" parent="0" />
        <mxCell id="a8boqiQT6ixFuTlEnx7N-157" style="edgeStyle=orthogonalEdgeStyle;rounded=0;orthogonalLoop=1;jettySize=auto;html=1;exitX=0.5;exitY=1;exitDx=0;exitDy=0;" parent="1" source="a8boqiQT6ixFuTlEnx7N-1" target="a8boqiQT6ixFuTlEnx7N-2" edge="1">
          <mxGeometry relative="1" as="geometry" />
        </mxCell>
        <mxCell id="a8boqiQT6ixFuTlEnx7N-1" value="Registrar - se" style="html=1;overflow=block;blockSpacing=1;whiteSpace=wrap;ellipse;fontSize=13;spacing=0;strokeColor=#unset;rounded=1;absoluteArcSize=1;arcSize=12;fillColor=#unset;strokeWidth=NaN;lucidId=yrag4i4~DtLm;fontColor=#FFFFFF;dashed=1;" parent="1" vertex="1">
          <mxGeometry x="180" y="1010" width="120" height="90" as="geometry" />
        </mxCell>
        <mxCell id="a8boqiQT6ixFuTlEnx7N-2" value="&lt;font style=&quot;background-color: rgb(0, 0, 0);&quot;&gt;Usuário&lt;/font&gt;" style="html=1;overflow=block;blockSpacing=1;shape=umlActor;labelPosition=center;verticalLabelPosition=bottom;verticalAlign=top;whiteSpace=nowrap;fontSize=16.8;align=center;spacing=0;strokeColor=#000000;rounded=1;absoluteArcSize=1;arcSize=12;fillColor=none;strokeWidth=NaN;lucidId=7vagbAvx4N~S;gradientColor=default;fontColor=#FFFFFF;dashed=1;" parent="1" vertex="1">
          <mxGeometry x="85" y="1274" width="165" height="270" as="geometry" />
        </mxCell>
        <mxCell id="a8boqiQT6ixFuTlEnx7N-158" style="edgeStyle=orthogonalEdgeStyle;rounded=0;orthogonalLoop=1;jettySize=auto;html=1;exitX=0.5;exitY=1;exitDx=0;exitDy=0;" parent="1" source="a8boqiQT6ixFuTlEnx7N-3" target="a8boqiQT6ixFuTlEnx7N-2" edge="1">
          <mxGeometry relative="1" as="geometry" />
        </mxCell>
        <mxCell id="a8boqiQT6ixFuTlEnx7N-159" style="edgeStyle=orthogonalEdgeStyle;rounded=0;orthogonalLoop=1;jettySize=auto;html=1;exitX=1;exitY=0.5;exitDx=0;exitDy=0;entryX=0;entryY=0.5;entryDx=0;entryDy=0;dashed=1;" parent="1" source="a8boqiQT6ixFuTlEnx7N-3" target="a8boqiQT6ixFuTlEnx7N-1" edge="1">
          <mxGeometry relative="1" as="geometry" />
        </mxCell>
        <mxCell id="a8boqiQT6ixFuTlEnx7N-161" style="edgeStyle=orthogonalEdgeStyle;rounded=0;orthogonalLoop=1;jettySize=auto;html=1;exitX=0;exitY=0.5;exitDx=0;exitDy=0;endArrow=none;endFill=0;dashed=1;" parent="1" source="a8boqiQT6ixFuTlEnx7N-3" edge="1">
          <mxGeometry relative="1" as="geometry">
            <mxPoint x="-500" y="1055.6666666666667" as="targetPoint" />
          </mxGeometry>
        </mxCell>
        <mxCell id="a8boqiQT6ixFuTlEnx7N-162" style="edgeStyle=orthogonalEdgeStyle;rounded=0;orthogonalLoop=1;jettySize=auto;html=1;exitX=0.5;exitY=0;exitDx=0;exitDy=0;endArrow=none;endFill=0;dashed=1;" parent="1" source="a8boqiQT6ixFuTlEnx7N-3" edge="1">
          <mxGeometry relative="1" as="geometry">
            <mxPoint x="350" y="1130" as="targetPoint" />
            <Array as="points">
              <mxPoint x="20" y="990" />
              <mxPoint x="350" y="990" />
            </Array>
          </mxGeometry>
        </mxCell>
        <mxCell id="a8boqiQT6ixFuTlEnx7N-163" style="edgeStyle=orthogonalEdgeStyle;rounded=0;orthogonalLoop=1;jettySize=auto;html=1;exitX=0;exitY=1;exitDx=0;exitDy=0;endArrow=none;endFill=0;dashed=1;" parent="1" source="a8boqiQT6ixFuTlEnx7N-3" edge="1">
          <mxGeometry relative="1" as="geometry">
            <mxPoint x="-80" y="1640" as="targetPoint" />
          </mxGeometry>
        </mxCell>
        <mxCell id="a8boqiQT6ixFuTlEnx7N-3" value="Efetuar Login" style="html=1;overflow=block;blockSpacing=1;whiteSpace=wrap;ellipse;fontSize=13;spacing=0;strokeColor=#unset;rounded=1;absoluteArcSize=1;arcSize=12;fillColor=#unset;strokeWidth=NaN;lucidId=UwageJgycTDn;fontColor=#FFFFFF;dashed=1;" parent="1" vertex="1">
          <mxGeometry x="-40" y="1010" width="120" height="90" as="geometry" />
        </mxCell>
        <mxCell id="a8boqiQT6ixFuTlEnx7N-10" value="Acessar mural" style="html=1;overflow=block;blockSpacing=1;whiteSpace=wrap;ellipse;fontSize=13;spacing=0;strokeColor=#unset;rounded=1;absoluteArcSize=1;arcSize=12;fillColor=#unset;strokeWidth=NaN;lucidId=dHagn~_5Zmwe;fontColor=#FFFFFF;dashed=1;" parent="1" vertex="1">
          <mxGeometry x="445" y="1048" width="120" height="90" as="geometry" />
        </mxCell>
        <mxCell id="a8boqiQT6ixFuTlEnx7N-11" value="Acessar Calendário" style="html=1;overflow=block;blockSpacing=1;whiteSpace=wrap;ellipse;fontSize=13;spacing=0;strokeColor=#unset;rounded=1;absoluteArcSize=1;arcSize=12;fillColor=#unset;strokeWidth=NaN;lucidId=YHagrCX9Udt0;fontColor=#FFFFFF;dashed=1;" parent="1" vertex="1">
          <mxGeometry x="445" y="1364" width="120" height="90" as="geometry" />
        </mxCell>
        <mxCell id="a8boqiQT6ixFuTlEnx7N-12" value="Acessar grade curricular" style="html=1;overflow=block;blockSpacing=1;whiteSpace=wrap;ellipse;fontSize=13;spacing=0;strokeColor=#unset;rounded=1;absoluteArcSize=1;arcSize=12;fillColor=#unset;strokeWidth=NaN;lucidId=hIagpORCgpfZ;fontColor=#FFFFFF;dashed=1;" parent="1" vertex="1">
          <mxGeometry x="445" y="1709" width="120" height="90" as="geometry" />
        </mxCell>
        <mxCell id="a8boqiQT6ixFuTlEnx7N-65" style="edgeStyle=orthogonalEdgeStyle;rounded=0;orthogonalLoop=1;jettySize=auto;html=1;dashed=1;" parent="1" source="a8boqiQT6ixFuTlEnx7N-13" edge="1">
          <mxGeometry relative="1" as="geometry">
            <mxPoint x="165" y="1564" as="targetPoint" />
            <Array as="points">
              <mxPoint x="255" y="1624" />
              <mxPoint x="165" y="1624" />
            </Array>
          </mxGeometry>
        </mxCell>
        <mxCell id="a8boqiQT6ixFuTlEnx7N-13" value="Acessar Quadro horários" style="html=1;overflow=block;blockSpacing=1;whiteSpace=wrap;ellipse;fontSize=13;spacing=0;strokeColor=#unset;rounded=1;absoluteArcSize=1;arcSize=12;fillColor=#unset;strokeWidth=NaN;lucidId=pIagBj0s2qwh;fontColor=#FFFFFF;dashed=1;" parent="1" vertex="1">
          <mxGeometry x="195" y="1709" width="120" height="90" as="geometry" />
        </mxCell>
        <mxCell id="a8boqiQT6ixFuTlEnx7N-67" style="edgeStyle=orthogonalEdgeStyle;rounded=0;orthogonalLoop=1;jettySize=auto;html=1;dashed=1;" parent="1" source="a8boqiQT6ixFuTlEnx7N-14" edge="1">
          <mxGeometry relative="1" as="geometry">
            <mxPoint x="165" y="1564" as="targetPoint" />
            <Array as="points">
              <mxPoint x="-395" y="1624" />
              <mxPoint x="165" y="1624" />
            </Array>
          </mxGeometry>
        </mxCell>
        <mxCell id="a8boqiQT6ixFuTlEnx7N-14" value="Acessar central do alunos" style="html=1;overflow=block;blockSpacing=1;whiteSpace=wrap;ellipse;fontSize=13;spacing=0;strokeColor=#unset;rounded=1;absoluteArcSize=1;arcSize=12;fillColor=#unset;strokeWidth=NaN;lucidId=BIagvt~GqZvg;fontColor=#FFFFFF;dashed=1;" parent="1" vertex="1">
          <mxGeometry x="-455" y="1724" width="120" height="90" as="geometry" />
        </mxCell>
        <mxCell id="a8boqiQT6ixFuTlEnx7N-68" style="edgeStyle=orthogonalEdgeStyle;rounded=0;orthogonalLoop=1;jettySize=auto;html=1;dashed=1;" parent="1" source="a8boqiQT6ixFuTlEnx7N-15" edge="1">
          <mxGeometry relative="1" as="geometry">
            <mxPoint x="165" y="1564" as="targetPoint" />
            <Array as="points">
              <mxPoint x="-800" y="1624" />
              <mxPoint x="165" y="1624" />
            </Array>
          </mxGeometry>
        </mxCell>
        <mxCell id="a8boqiQT6ixFuTlEnx7N-15" value="Acessar Secretaria" style="html=1;overflow=block;blockSpacing=1;whiteSpace=wrap;ellipse;fontSize=13;spacing=0;strokeColor=#unset;rounded=1;absoluteArcSize=1;arcSize=12;fillColor=#unset;strokeWidth=NaN;lucidId=OIagVC0JcYYv;fontColor=#FFFFFF;dashed=1;" parent="1" vertex="1">
          <mxGeometry x="-860" y="1724" width="120" height="90" as="geometry" />
        </mxCell>
        <mxCell id="a8boqiQT6ixFuTlEnx7N-16" value="Acessar Financeiro" style="html=1;overflow=block;blockSpacing=1;whiteSpace=wrap;ellipse;fontSize=13;spacing=0;strokeColor=#unset;rounded=1;absoluteArcSize=1;arcSize=12;fillColor=#unset;strokeWidth=NaN;lucidId=YIag6XzU.~t0;fontColor=#FFFFFF;dashed=1;" parent="1" vertex="1">
          <mxGeometry x="-820" y="1363.5" width="120" height="90" as="geometry" />
        </mxCell>
        <mxCell id="a8boqiQT6ixFuTlEnx7N-17" value="Acessar Avaliação institucional" style="html=1;overflow=block;blockSpacing=1;whiteSpace=wrap;ellipse;fontSize=13;spacing=0;strokeColor=#unset;rounded=1;absoluteArcSize=1;arcSize=12;fillColor=#unset;strokeWidth=NaN;lucidId=_IagbeA8bNs2;fontColor=#FFFFFF;dashed=1;" parent="1" vertex="1">
          <mxGeometry x="-840" y="1049" width="120" height="90" as="geometry" />
        </mxCell>
        <mxCell id="a8boqiQT6ixFuTlEnx7N-18" value="Acessar Relatórios" style="html=1;overflow=block;blockSpacing=1;whiteSpace=wrap;ellipse;fontSize=13;spacing=0;strokeColor=#unset;rounded=1;absoluteArcSize=1;arcSize=12;fillColor=#unset;strokeWidth=NaN;lucidId=kJag4-GjH_~T;fontColor=#FFFFFF;dashed=1;" parent="1" vertex="1">
          <mxGeometry x="-830" y="800" width="120" height="90" as="geometry" />
        </mxCell>
        <mxCell id="a8boqiQT6ixFuTlEnx7N-19" value="Acessar outros serviços" style="html=1;overflow=block;blockSpacing=1;whiteSpace=wrap;ellipse;fontSize=13;spacing=0;strokeColor=#unset;rounded=1;absoluteArcSize=1;arcSize=12;fillColor=#unset;strokeWidth=NaN;lucidId=DJagKf5utD9f;fontColor=#FFFFFF;dashed=1;" parent="1" vertex="1">
          <mxGeometry x="-560" y="370" width="130" height="100" as="geometry" />
        </mxCell>
        <mxCell id="a8boqiQT6ixFuTlEnx7N-20" value="Visualizar calendário de aula do dia" style="html=1;overflow=block;blockSpacing=1;whiteSpace=wrap;ellipse;fontSize=13;spacing=0;strokeColor=#unset;rounded=1;absoluteArcSize=1;arcSize=12;fillColor=#unset;strokeWidth=NaN;lucidId=1Jag_tE0Hn4.;fontColor=#FFFFFF;dashed=1;" parent="1" vertex="1">
          <mxGeometry x="745" y="929" width="120" height="90" as="geometry" />
        </mxCell>
        <mxCell id="a8boqiQT6ixFuTlEnx7N-21" value="Visualizar financeiro" style="html=1;overflow=block;blockSpacing=1;whiteSpace=wrap;ellipse;fontSize=13;spacing=0;strokeColor=#unset;rounded=1;absoluteArcSize=1;arcSize=12;fillColor=#unset;strokeWidth=NaN;lucidId=zKag2qk2oZI-;fontColor=#FFFFFF;dashed=1;" parent="1" vertex="1">
          <mxGeometry x="745" y="1049" width="120" height="90" as="geometry" />
        </mxCell>
        <mxCell id="a8boqiQT6ixFuTlEnx7N-23" value="" style="html=1;jettySize=18;whiteSpace=wrap;fontSize=13;strokeColor=#333333;strokeOpacity=100;strokeWidth=0.8;rounded=1;arcSize=24;edgeStyle=orthogonalEdgeStyle;startArrow=none;endArrow=block;endFill=1;exitX=0;exitY=0.5;exitPerimeter=0;entryX=0.5;entryY=-0.004;entryPerimeter=0;lucidId=ONagROklHRr6;fontColor=#FFFFFF;dashed=1;" parent="1" source="a8boqiQT6ixFuTlEnx7N-29" target="a8boqiQT6ixFuTlEnx7N-10" edge="1">
          <mxGeometry width="100" height="100" relative="1" as="geometry">
            <Array as="points" />
          </mxGeometry>
        </mxCell>
        <mxCell id="a8boqiQT6ixFuTlEnx7N-24" value="" style="html=1;jettySize=18;whiteSpace=wrap;fontSize=13;strokeColor=#333333;strokeOpacity=100;strokeWidth=0.8;rounded=1;arcSize=24;edgeStyle=orthogonalEdgeStyle;startArrow=none;endArrow=block;endFill=1;exitX=-0.003;exitY=0.5;exitPerimeter=0;entryX=1;entryY=0.5;entryPerimeter=0;lucidId=BMagoWyzxK1b;fontColor=#FFFFFF;dashed=1;" parent="1" source="a8boqiQT6ixFuTlEnx7N-20" target="a8boqiQT6ixFuTlEnx7N-29" edge="1">
          <mxGeometry width="100" height="100" relative="1" as="geometry">
            <Array as="points" />
          </mxGeometry>
        </mxCell>
        <mxCell id="a8boqiQT6ixFuTlEnx7N-25" value="" style="html=1;jettySize=18;whiteSpace=wrap;fontSize=13;strokeColor=#333333;strokeOpacity=100;strokeWidth=0.8;rounded=1;arcSize=24;edgeStyle=orthogonalEdgeStyle;startArrow=none;endArrow=block;endFill=1;exitX=-0.003;exitY=0.5;exitPerimeter=0;entryX=1;entryY=0.5;entryPerimeter=0;lucidId=NMagtlY1~Lgc;fontColor=#FFFFFF;dashed=1;" parent="1" source="a8boqiQT6ixFuTlEnx7N-21" target="a8boqiQT6ixFuTlEnx7N-30" edge="1">
          <mxGeometry width="100" height="100" relative="1" as="geometry">
            <Array as="points" />
          </mxGeometry>
        </mxCell>
        <mxCell id="a8boqiQT6ixFuTlEnx7N-26" value="" style="html=1;jettySize=18;whiteSpace=wrap;fontSize=13;strokeColor=#333333;strokeOpacity=100;strokeWidth=0.8;rounded=1;arcSize=24;edgeStyle=orthogonalEdgeStyle;startArrow=none;endArrow=block;endFill=1;exitX=0;exitY=0.5;exitPerimeter=0;entryX=1.003;entryY=0.5;entryPerimeter=0;lucidId=MOagrn6weOL4;fontColor=#000000;dashed=1;" parent="1" source="a8boqiQT6ixFuTlEnx7N-30" target="a8boqiQT6ixFuTlEnx7N-10" edge="1">
          <mxGeometry width="100" height="100" relative="1" as="geometry">
            <Array as="points" />
          </mxGeometry>
        </mxCell>
        <mxCell id="a8boqiQT6ixFuTlEnx7N-27" value="" style="html=1;jettySize=18;whiteSpace=wrap;fontSize=13;strokeColor=#333333;strokeOpacity=100;strokeWidth=0.8;rounded=1;arcSize=24;edgeStyle=orthogonalEdgeStyle;startArrow=none;endArrow=block;endFill=1;exitX=-0.003;exitY=0.5;exitPerimeter=0;entryX=1;entryY=0.5;entryPerimeter=0;lucidId=ENagxKaiFRC9;fontColor=#FFFFFF;dashed=1;" parent="1" target="a8boqiQT6ixFuTlEnx7N-31" edge="1">
          <mxGeometry width="100" height="100" relative="1" as="geometry">
            <Array as="points" />
            <mxPoint x="744.6400000000003" y="1229" as="sourcePoint" />
          </mxGeometry>
        </mxCell>
        <mxCell id="a8boqiQT6ixFuTlEnx7N-28" value="" style="html=1;jettySize=18;whiteSpace=wrap;fontSize=13;strokeColor=#333333;strokeOpacity=100;strokeWidth=0.8;rounded=1;arcSize=24;edgeStyle=orthogonalEdgeStyle;startArrow=none;endArrow=block;endFill=1;exitX=0;exitY=0.5;exitPerimeter=0;entryX=0.5;entryY=1.004;entryPerimeter=0;lucidId=JOagZ-txOrFB;fontColor=#FFFFFF;dashed=1;" parent="1" source="a8boqiQT6ixFuTlEnx7N-31" target="a8boqiQT6ixFuTlEnx7N-10" edge="1">
          <mxGeometry width="100" height="100" relative="1" as="geometry">
            <Array as="points" />
          </mxGeometry>
        </mxCell>
        <mxCell id="a8boqiQT6ixFuTlEnx7N-29" value="&amp;lt;&amp;lt;Extend&amp;gt;&amp;gt;" style="html=1;overflow=block;blockSpacing=1;whiteSpace=wrap;fontSize=16.8;align=left;spacing=0;verticalAlign=top;strokeColor=none;fillOpacity=0;rounded=1;absoluteArcSize=1;arcSize=12;fillColor=#ffffff;strokeWidth=0;lucidId=MNagL1ktXy~a;fontColor=#000000;dashed=1;" parent="1" vertex="1">
          <mxGeometry x="565" y="960" width="101" height="28" as="geometry" />
        </mxCell>
        <mxCell id="a8boqiQT6ixFuTlEnx7N-30" value="&amp;lt;&amp;lt;Extend&amp;gt;&amp;gt;" style="html=1;overflow=block;blockSpacing=1;whiteSpace=wrap;fontSize=16.8;align=left;spacing=0;verticalAlign=top;strokeColor=none;fillOpacity=0;rounded=1;absoluteArcSize=1;arcSize=12;fillColor=#ffffff;strokeWidth=0;lucidId=YNag1a21I5Du;fontColor=#000000;dashed=1;" parent="1" vertex="1">
          <mxGeometry x="605" y="1079" width="101" height="28" as="geometry" />
        </mxCell>
        <mxCell id="a8boqiQT6ixFuTlEnx7N-31" value="&amp;lt;&amp;lt;Extend&amp;gt;&amp;gt;" style="html=1;overflow=block;blockSpacing=1;whiteSpace=wrap;fontSize=16.8;align=left;spacing=0;verticalAlign=top;strokeColor=none;fillOpacity=0;rounded=1;absoluteArcSize=1;arcSize=12;fillColor=#ffffff;strokeWidth=0;lucidId=pOagbPEiVtcX;fontColor=#000000;dashed=1;" parent="1" vertex="1">
          <mxGeometry x="590" y="1215" width="101" height="28" as="geometry" />
        </mxCell>
        <mxCell id="a8boqiQT6ixFuTlEnx7N-32" value="Visualizar disciplina e horário da aula" style="html=1;overflow=block;blockSpacing=1;whiteSpace=wrap;ellipse;fontSize=13;spacing=0;strokeColor=#unset;rounded=1;absoluteArcSize=1;arcSize=12;fillColor=#unset;strokeWidth=NaN;lucidId=.Oag~soaluQ0;fontColor=#FFFFFF;dashed=1;" parent="1" vertex="1">
          <mxGeometry x="745" y="1364" width="120" height="90" as="geometry" />
        </mxCell>
        <mxCell id="a8boqiQT6ixFuTlEnx7N-33" value="" style="html=1;jettySize=18;whiteSpace=wrap;fontSize=13;strokeColor=#333333;strokeOpacity=100;strokeWidth=0.8;rounded=1;arcSize=24;edgeStyle=orthogonalEdgeStyle;startArrow=none;endArrow=block;endFill=1;exitX=-0.003;exitY=0.5;exitPerimeter=0;entryX=1.003;entryY=0.5;entryPerimeter=0;lucidId=qQagTw5UX_rF;fontColor=#FFFFFF;dashed=1;" parent="1" source="a8boqiQT6ixFuTlEnx7N-32" target="a8boqiQT6ixFuTlEnx7N-11" edge="1">
          <mxGeometry width="100" height="100" relative="1" as="geometry">
            <Array as="points" />
          </mxGeometry>
        </mxCell>
        <mxCell id="a8boqiQT6ixFuTlEnx7N-34" value="&amp;lt;&amp;lt;Extend&amp;gt;&amp;gt;" style="html=1;overflow=block;blockSpacing=1;whiteSpace=wrap;fontSize=16.8;align=left;spacing=0;verticalAlign=top;strokeColor=none;fillOpacity=0;rounded=1;absoluteArcSize=1;arcSize=12;fillColor=#ffffff;strokeWidth=0;lucidId=uQag4CwI-Fig;fontColor=#000000;dashed=1;" parent="1" vertex="1">
          <mxGeometry x="605" y="1388" width="101" height="28" as="geometry" />
        </mxCell>
        <mxCell id="a8boqiQT6ixFuTlEnx7N-69" style="edgeStyle=orthogonalEdgeStyle;rounded=0;orthogonalLoop=1;jettySize=auto;html=1;entryX=0.5;entryY=0;entryDx=0;entryDy=0;dashed=1;" parent="1" source="a8boqiQT6ixFuTlEnx7N-35" target="a8boqiQT6ixFuTlEnx7N-36" edge="1">
          <mxGeometry relative="1" as="geometry" />
        </mxCell>
        <mxCell id="a8boqiQT6ixFuTlEnx7N-71" style="edgeStyle=orthogonalEdgeStyle;rounded=0;orthogonalLoop=1;jettySize=auto;html=1;entryX=1;entryY=0.5;entryDx=0;entryDy=0;dashed=1;" parent="1" source="a8boqiQT6ixFuTlEnx7N-35" target="a8boqiQT6ixFuTlEnx7N-37" edge="1">
          <mxGeometry relative="1" as="geometry">
            <Array as="points">
              <mxPoint x="885" y="1560" />
              <mxPoint x="885" y="1814" />
            </Array>
          </mxGeometry>
        </mxCell>
        <mxCell id="a8boqiQT6ixFuTlEnx7N-35" value="Visualizar disciplinas obrigatórias" style="html=1;overflow=block;blockSpacing=1;whiteSpace=wrap;ellipse;fontSize=13;spacing=0;strokeColor=#unset;rounded=1;absoluteArcSize=1;arcSize=12;fillColor=#unset;strokeWidth=NaN;lucidId=YQagJCBSRwqr;fontColor=#FFFFFF;dashed=1;" parent="1" vertex="1">
          <mxGeometry x="745" y="1514" width="120" height="90" as="geometry" />
        </mxCell>
        <mxCell id="a8boqiQT6ixFuTlEnx7N-70" value="" style="edgeStyle=orthogonalEdgeStyle;rounded=0;orthogonalLoop=1;jettySize=auto;html=1;dashed=1;" parent="1" source="a8boqiQT6ixFuTlEnx7N-36" target="a8boqiQT6ixFuTlEnx7N-37" edge="1">
          <mxGeometry relative="1" as="geometry" />
        </mxCell>
        <mxCell id="a8boqiQT6ixFuTlEnx7N-72" style="edgeStyle=orthogonalEdgeStyle;rounded=0;orthogonalLoop=1;jettySize=auto;html=1;entryX=1;entryY=0.5;entryDx=0;entryDy=0;dashed=1;" parent="1" source="a8boqiQT6ixFuTlEnx7N-36" target="a8boqiQT6ixFuTlEnx7N-38" edge="1">
          <mxGeometry relative="1" as="geometry">
            <Array as="points">
              <mxPoint x="885" y="1679" />
              <mxPoint x="885" y="1964" />
            </Array>
          </mxGeometry>
        </mxCell>
        <mxCell id="a8boqiQT6ixFuTlEnx7N-36" value="Visualizar disciplinas equivalentes" style="html=1;overflow=block;blockSpacing=1;whiteSpace=wrap;ellipse;fontSize=13;spacing=0;strokeColor=#unset;rounded=1;absoluteArcSize=1;arcSize=12;fillColor=#unset;strokeWidth=NaN;lucidId=gRagN5wb1Q2M;fontColor=#FFFFFF;dashed=1;" parent="1" vertex="1">
          <mxGeometry x="745" y="1634" width="120" height="90" as="geometry" />
        </mxCell>
        <mxCell id="a8boqiQT6ixFuTlEnx7N-73" style="edgeStyle=orthogonalEdgeStyle;rounded=0;orthogonalLoop=1;jettySize=auto;html=1;dashed=1;" parent="1" source="a8boqiQT6ixFuTlEnx7N-37" target="a8boqiQT6ixFuTlEnx7N-38" edge="1">
          <mxGeometry relative="1" as="geometry" />
        </mxCell>
        <mxCell id="a8boqiQT6ixFuTlEnx7N-37" value="Visualizar componentes curriculares" style="html=1;overflow=block;blockSpacing=1;whiteSpace=wrap;ellipse;fontSize=13;spacing=0;strokeColor=#unset;rounded=1;absoluteArcSize=1;arcSize=12;fillColor=#unset;strokeWidth=NaN;lucidId=tRagm54ngory;fontColor=#FFFFFF;dashed=1;" parent="1" vertex="1">
          <mxGeometry x="745" y="1769" width="120" height="90" as="geometry" />
        </mxCell>
        <mxCell id="a8boqiQT6ixFuTlEnx7N-74" style="edgeStyle=orthogonalEdgeStyle;rounded=0;orthogonalLoop=1;jettySize=auto;html=1;dashed=1;" parent="1" source="a8boqiQT6ixFuTlEnx7N-38" target="a8boqiQT6ixFuTlEnx7N-43" edge="1">
          <mxGeometry relative="1" as="geometry" />
        </mxCell>
        <mxCell id="a8boqiQT6ixFuTlEnx7N-75" style="edgeStyle=orthogonalEdgeStyle;rounded=0;orthogonalLoop=1;jettySize=auto;html=1;entryX=1;entryY=0.5;entryDx=0;entryDy=0;dashed=1;" parent="1" source="a8boqiQT6ixFuTlEnx7N-38" target="a8boqiQT6ixFuTlEnx7N-43" edge="1">
          <mxGeometry relative="1" as="geometry">
            <Array as="points">
              <mxPoint x="885" y="1964" />
              <mxPoint x="885" y="2114" />
            </Array>
          </mxGeometry>
        </mxCell>
        <mxCell id="a8boqiQT6ixFuTlEnx7N-38" value="Visualizar disciplinas extras" style="html=1;overflow=block;blockSpacing=1;whiteSpace=wrap;ellipse;fontSize=13;spacing=0;strokeColor=#unset;rounded=1;absoluteArcSize=1;arcSize=12;fillColor=#unset;strokeWidth=NaN;lucidId=PRagkQsI905Z;fontColor=#FFFFFF;dashed=1;" parent="1" vertex="1">
          <mxGeometry x="745" y="1919" width="120" height="90" as="geometry" />
        </mxCell>
        <mxCell id="a8boqiQT6ixFuTlEnx7N-39" value="" style="html=1;jettySize=18;whiteSpace=wrap;fontSize=13;strokeColor=#333333;strokeOpacity=100;strokeWidth=0.8;rounded=1;arcSize=24;edgeStyle=orthogonalEdgeStyle;startArrow=none;endArrow=block;endFill=1;exitX=-0.003;exitY=0.5;exitPerimeter=0;entryX=0.5;entryY=0;lucidId=oSagfKJ._Evr;fontColor=#FFFFFF;entryDx=0;entryDy=0;dashed=1;" parent="1" source="a8boqiQT6ixFuTlEnx7N-35" target="a8boqiQT6ixFuTlEnx7N-12" edge="1">
          <mxGeometry width="100" height="100" relative="1" as="geometry">
            <Array as="points" />
          </mxGeometry>
        </mxCell>
        <mxCell id="a8boqiQT6ixFuTlEnx7N-40" value="" style="html=1;jettySize=18;whiteSpace=wrap;fontSize=13;strokeColor=#333333;strokeOpacity=100;strokeWidth=0.8;rounded=1;arcSize=24;edgeStyle=orthogonalEdgeStyle;startArrow=none;endArrow=block;endFill=1;exitX=-0.003;exitY=0.5;exitPerimeter=0;entryX=1.003;entryY=0.5;entryPerimeter=0;lucidId=qSagZRe-REHt;fontColor=#FFFFFF;dashed=1;" parent="1" source="a8boqiQT6ixFuTlEnx7N-36" target="a8boqiQT6ixFuTlEnx7N-12" edge="1">
          <mxGeometry width="100" height="100" relative="1" as="geometry">
            <Array as="points" />
          </mxGeometry>
        </mxCell>
        <mxCell id="a8boqiQT6ixFuTlEnx7N-41" value="" style="html=1;jettySize=18;whiteSpace=wrap;fontSize=13;strokeColor=#333333;strokeOpacity=100;strokeWidth=0.8;rounded=1;arcSize=24;edgeStyle=orthogonalEdgeStyle;startArrow=none;endArrow=block;endFill=1;exitX=-0.003;exitY=0.5;exitPerimeter=0;entryX=1.003;entryY=0.5;entryPerimeter=0;lucidId=sSagq5nu~biI;fontColor=#FFFFFF;dashed=1;" parent="1" source="a8boqiQT6ixFuTlEnx7N-37" target="a8boqiQT6ixFuTlEnx7N-12" edge="1">
          <mxGeometry width="100" height="100" relative="1" as="geometry">
            <Array as="points" />
          </mxGeometry>
        </mxCell>
        <mxCell id="a8boqiQT6ixFuTlEnx7N-42" value="" style="html=1;jettySize=18;whiteSpace=wrap;fontSize=13;strokeColor=#333333;strokeOpacity=100;strokeWidth=0.8;rounded=1;arcSize=24;edgeStyle=orthogonalEdgeStyle;startArrow=none;endArrow=block;endFill=1;exitX=-0.003;exitY=0.5;exitPerimeter=0;entryX=0.5;entryY=1.004;entryPerimeter=0;lucidId=vSagDuOkVVO3;fontColor=#FFFFFF;dashed=1;" parent="1" source="a8boqiQT6ixFuTlEnx7N-38" target="a8boqiQT6ixFuTlEnx7N-12" edge="1">
          <mxGeometry width="100" height="100" relative="1" as="geometry">
            <Array as="points" />
          </mxGeometry>
        </mxCell>
        <mxCell id="a8boqiQT6ixFuTlEnx7N-43" value="Visualizar todos" style="html=1;overflow=block;blockSpacing=1;whiteSpace=wrap;ellipse;fontSize=13;spacing=0;strokeColor=#unset;rounded=1;absoluteArcSize=1;arcSize=12;fillColor=#unset;strokeWidth=NaN;lucidId=5SagW4BouQZk;fontColor=#FFFFFF;dashed=1;" parent="1" vertex="1">
          <mxGeometry x="745" y="2069" width="120" height="90" as="geometry" />
        </mxCell>
        <mxCell id="a8boqiQT6ixFuTlEnx7N-44" value="" style="html=1;jettySize=18;whiteSpace=wrap;fontSize=13;strokeColor=#333333;strokeOpacity=100;strokeWidth=0.8;rounded=1;arcSize=24;edgeStyle=orthogonalEdgeStyle;startArrow=none;endArrow=block;endFill=1;exitX=-0.003;exitY=0.5;exitPerimeter=0;entryX=0.5;entryY=1.004;entryPerimeter=0;lucidId=cTag1ZxAHhhf;fontColor=#FFFFFF;dashed=1;" parent="1" source="a8boqiQT6ixFuTlEnx7N-43" target="a8boqiQT6ixFuTlEnx7N-12" edge="1">
          <mxGeometry width="100" height="100" relative="1" as="geometry">
            <Array as="points" />
          </mxGeometry>
        </mxCell>
        <mxCell id="a8boqiQT6ixFuTlEnx7N-45" value="Visualizar periodos" style="html=1;overflow=block;blockSpacing=1;whiteSpace=wrap;ellipse;fontSize=13;spacing=0;strokeColor=#unset;rounded=1;absoluteArcSize=1;arcSize=12;fillColor=#unset;strokeWidth=NaN;lucidId=pTag.v2tSQDk;fontColor=#FFFFFF;dashed=1;" parent="1" vertex="1">
          <mxGeometry x="940" y="2069" width="120" height="90" as="geometry" />
        </mxCell>
        <mxCell id="a8boqiQT6ixFuTlEnx7N-46" value="" style="html=1;jettySize=18;whiteSpace=wrap;fontSize=13;strokeColor=#333333;strokeOpacity=100;strokeWidth=0.8;rounded=1;arcSize=24;edgeStyle=orthogonalEdgeStyle;startArrow=none;endArrow=block;endFill=1;exitX=-0.003;exitY=0.5;exitPerimeter=0;entryX=1.003;entryY=0.5;entryPerimeter=0;lucidId=DTagSdUOl-BM;fontColor=#FFFFFF;dashed=1;" parent="1" source="a8boqiQT6ixFuTlEnx7N-45" target="a8boqiQT6ixFuTlEnx7N-43" edge="1">
          <mxGeometry width="100" height="100" relative="1" as="geometry">
            <Array as="points" />
          </mxGeometry>
        </mxCell>
        <mxCell id="a8boqiQT6ixFuTlEnx7N-47" value="Visualizar o horário das aulas e dias da semana" style="html=1;overflow=block;blockSpacing=1;whiteSpace=wrap;ellipse;fontSize=13;spacing=0;strokeColor=#unset;rounded=1;absoluteArcSize=1;arcSize=12;fillColor=#unset;strokeWidth=NaN;lucidId=n.agVvmekQWe;fontColor=#FFFFFF;dashed=1;" parent="1" vertex="1">
          <mxGeometry x="195" y="1889" width="120" height="90" as="geometry" />
        </mxCell>
        <mxCell id="a8boqiQT6ixFuTlEnx7N-48" value="" style="html=1;jettySize=18;whiteSpace=wrap;fontSize=13;strokeColor=#333333;strokeOpacity=100;strokeWidth=0.8;rounded=1;arcSize=24;edgeStyle=orthogonalEdgeStyle;startArrow=none;endArrow=block;endFill=1;exitX=0.5;exitY=-0.004;exitPerimeter=0;entryX=0.5;entryY=1.004;entryPerimeter=0;lucidId=J.agPEt08at-;fontColor=#FFFFFF;dashed=1;" parent="1" source="a8boqiQT6ixFuTlEnx7N-47" target="a8boqiQT6ixFuTlEnx7N-13" edge="1">
          <mxGeometry width="100" height="100" relative="1" as="geometry">
            <Array as="points" />
          </mxGeometry>
        </mxCell>
        <mxCell id="a8boqiQT6ixFuTlEnx7N-66" style="edgeStyle=orthogonalEdgeStyle;rounded=0;orthogonalLoop=1;jettySize=auto;html=1;dashed=1;" parent="1" source="a8boqiQT6ixFuTlEnx7N-49" edge="1">
          <mxGeometry relative="1" as="geometry">
            <mxPoint x="165.00000000000045" y="1564" as="targetPoint" />
            <Array as="points">
              <mxPoint x="-80" y="1624" />
              <mxPoint x="166" y="1624" />
              <mxPoint x="166" y="1564" />
            </Array>
          </mxGeometry>
        </mxCell>
        <mxCell id="a8boqiQT6ixFuTlEnx7N-49" value="Acessar rematricua online" style="html=1;overflow=block;blockSpacing=1;whiteSpace=wrap;ellipse;fontSize=13;spacing=0;strokeColor=#unset;rounded=1;absoluteArcSize=1;arcSize=12;fillColor=#unset;strokeWidth=NaN;lucidId=1.ag~CVnoAaW;fontColor=#FFFFFF;dashed=1;" parent="1" vertex="1">
          <mxGeometry x="-140" y="1724" width="120" height="90" as="geometry" />
        </mxCell>
        <mxCell id="a8boqiQT6ixFuTlEnx7N-50" value="Realizar matricula" style="html=1;overflow=block;blockSpacing=1;whiteSpace=wrap;ellipse;fontSize=13;spacing=0;strokeColor=#unset;rounded=1;absoluteArcSize=1;arcSize=12;fillColor=#unset;strokeWidth=NaN;lucidId=b~agueSCxulZ;fontColor=#FFFFFF;dashed=1;" parent="1" vertex="1">
          <mxGeometry x="-140" y="1904" width="120" height="90" as="geometry" />
        </mxCell>
        <mxCell id="a8boqiQT6ixFuTlEnx7N-51" value="" style="html=1;jettySize=18;whiteSpace=wrap;fontSize=13;strokeColor=#333333;strokeOpacity=100;strokeWidth=0.8;rounded=1;arcSize=24;edgeStyle=orthogonalEdgeStyle;startArrow=none;endArrow=block;endFill=1;exitX=0.5;exitY=-0.004;exitPerimeter=0;entryX=0.5;entryY=1.004;entryPerimeter=0;lucidId=p~agpQxeekgd;fontColor=#FFFFFF;dashed=1;" parent="1" source="a8boqiQT6ixFuTlEnx7N-50" target="a8boqiQT6ixFuTlEnx7N-49" edge="1">
          <mxGeometry width="100" height="100" relative="1" as="geometry">
            <Array as="points" />
          </mxGeometry>
        </mxCell>
        <mxCell id="a8boqiQT6ixFuTlEnx7N-52" value="Faltas" style="html=1;overflow=block;blockSpacing=1;whiteSpace=wrap;ellipse;fontSize=13;spacing=0;strokeColor=#unset;rounded=1;absoluteArcSize=1;arcSize=12;fillColor=#unset;strokeWidth=NaN;lucidId=A~agkbCemhLl;fontColor=#FFFFFF;dashed=1;" parent="1" vertex="1">
          <mxGeometry x="-350" y="1904" width="120" height="90" as="geometry" />
        </mxCell>
        <mxCell id="a8boqiQT6ixFuTlEnx7N-53" value="Notas" style="html=1;overflow=block;blockSpacing=1;whiteSpace=wrap;ellipse;fontSize=13;spacing=0;strokeColor=#unset;rounded=1;absoluteArcSize=1;arcSize=12;fillColor=#unset;strokeWidth=NaN;lucidId=I~agpLsD2bHk;fontColor=#FFFFFF;dashed=1;" parent="1" vertex="1">
          <mxGeometry x="-560" y="1904" width="120" height="90" as="geometry" />
        </mxCell>
        <mxCell id="a8boqiQT6ixFuTlEnx7N-54" value="" style="html=1;jettySize=18;whiteSpace=wrap;fontSize=13;strokeColor=#333333;strokeOpacity=100;strokeWidth=0.8;rounded=1;arcSize=24;edgeStyle=orthogonalEdgeStyle;startArrow=none;endArrow=block;endFill=1;exitX=0.5;exitY=-0.004;exitPerimeter=0;entryX=0.5;entryY=1.004;entryPerimeter=0;lucidId=V~agcwOF0QBT;fontColor=#FFFFFF;dashed=1;" parent="1" source="a8boqiQT6ixFuTlEnx7N-52" target="a8boqiQT6ixFuTlEnx7N-14" edge="1">
          <mxGeometry width="100" height="100" relative="1" as="geometry">
            <Array as="points" />
          </mxGeometry>
        </mxCell>
        <mxCell id="a8boqiQT6ixFuTlEnx7N-55" value="" style="html=1;jettySize=18;whiteSpace=wrap;fontSize=13;strokeColor=#333333;strokeOpacity=100;strokeWidth=0.8;rounded=1;arcSize=24;edgeStyle=orthogonalEdgeStyle;startArrow=none;endArrow=block;endFill=1;exitX=0.5;exitY=-0.004;exitPerimeter=0;entryX=0.5;entryY=1.004;entryPerimeter=0;lucidId=Z~agnv~KzPze;fontColor=#FFFFFF;dashed=1;" parent="1" source="a8boqiQT6ixFuTlEnx7N-53" target="a8boqiQT6ixFuTlEnx7N-14" edge="1">
          <mxGeometry width="100" height="100" relative="1" as="geometry">
            <Array as="points" />
          </mxGeometry>
        </mxCell>
        <mxCell id="a8boqiQT6ixFuTlEnx7N-56" value="Visualizar suas  faltas " style="html=1;overflow=block;blockSpacing=1;whiteSpace=wrap;ellipse;fontSize=13;spacing=0;strokeColor=#unset;rounded=1;absoluteArcSize=1;arcSize=12;fillColor=#unset;strokeWidth=NaN;lucidId=6~agy3DxxFf9;fontColor=#FFFFFF;dashed=1;" parent="1" vertex="1">
          <mxGeometry x="-350" y="2069" width="120" height="90" as="geometry" />
        </mxCell>
        <mxCell id="a8boqiQT6ixFuTlEnx7N-57" value="" style="html=1;jettySize=18;whiteSpace=wrap;fontSize=13;strokeColor=#333333;strokeOpacity=100;strokeWidth=0.8;rounded=1;arcSize=24;edgeStyle=orthogonalEdgeStyle;startArrow=none;endArrow=block;endFill=1;exitX=0.5;exitY=-0.004;exitPerimeter=0;entryX=0.5;entryY=1.004;entryPerimeter=0;lucidId=cabgHm3mRo8o;fontColor=#FFFFFF;dashed=1;" parent="1" source="a8boqiQT6ixFuTlEnx7N-56" target="a8boqiQT6ixFuTlEnx7N-52" edge="1">
          <mxGeometry width="100" height="100" relative="1" as="geometry">
            <Array as="points" />
          </mxGeometry>
        </mxCell>
        <mxCell id="a8boqiQT6ixFuTlEnx7N-58" value="Visualizar suas notas " style="html=1;overflow=block;blockSpacing=1;whiteSpace=wrap;ellipse;fontSize=13;spacing=0;strokeColor=#unset;rounded=1;absoluteArcSize=1;arcSize=12;fillColor=#unset;strokeWidth=NaN;lucidId=eabgAzcJK~0k;fontColor=#FFFFFF;dashed=1;" parent="1" vertex="1">
          <mxGeometry x="-560" y="2069" width="120" height="90" as="geometry" />
        </mxCell>
        <mxCell id="a8boqiQT6ixFuTlEnx7N-59" value="" style="html=1;jettySize=18;whiteSpace=wrap;fontSize=13;strokeColor=#333333;strokeOpacity=100;strokeWidth=0.8;rounded=1;arcSize=24;edgeStyle=orthogonalEdgeStyle;startArrow=none;endArrow=block;endFill=1;exitX=0.5;exitY=-0.004;exitPerimeter=0;entryX=0.5;entryY=1.004;entryPerimeter=0;lucidId=pabgt~xYFm_E;fontColor=#FFFFFF;dashed=1;" parent="1" source="a8boqiQT6ixFuTlEnx7N-58" target="a8boqiQT6ixFuTlEnx7N-53" edge="1">
          <mxGeometry width="100" height="100" relative="1" as="geometry">
            <Array as="points" />
          </mxGeometry>
        </mxCell>
        <mxCell id="a8boqiQT6ixFuTlEnx7N-61" value="Acessar notas&amp;nbsp;" style="html=1;overflow=block;blockSpacing=1;whiteSpace=wrap;ellipse;fontSize=13;spacing=0;strokeColor=#unset;rounded=1;absoluteArcSize=1;arcSize=12;fillColor=#unset;strokeWidth=NaN;lucidId=zKag2qk2oZI-;fontColor=#FFFFFF;dashed=1;" parent="1" vertex="1">
          <mxGeometry x="745" y="1184" width="120" height="90" as="geometry" />
        </mxCell>
        <mxCell id="a8boqiQT6ixFuTlEnx7N-62" style="edgeStyle=orthogonalEdgeStyle;rounded=0;orthogonalLoop=1;jettySize=auto;html=1;entryX=1;entryY=0.3333333333333333;entryDx=0;entryDy=0;entryPerimeter=0;dashed=1;" parent="1" source="a8boqiQT6ixFuTlEnx7N-10" target="a8boqiQT6ixFuTlEnx7N-2" edge="1">
          <mxGeometry relative="1" as="geometry">
            <Array as="points">
              <mxPoint x="350" y="1093" />
              <mxPoint x="350" y="1364" />
            </Array>
          </mxGeometry>
        </mxCell>
        <mxCell id="a8boqiQT6ixFuTlEnx7N-63" style="edgeStyle=orthogonalEdgeStyle;rounded=0;orthogonalLoop=1;jettySize=auto;html=1;entryX=1;entryY=0.3333333333333333;entryDx=0;entryDy=0;entryPerimeter=0;dashed=1;" parent="1" source="a8boqiQT6ixFuTlEnx7N-11" target="a8boqiQT6ixFuTlEnx7N-2" edge="1">
          <mxGeometry relative="1" as="geometry" />
        </mxCell>
        <mxCell id="a8boqiQT6ixFuTlEnx7N-64" style="edgeStyle=orthogonalEdgeStyle;rounded=0;orthogonalLoop=1;jettySize=auto;html=1;entryX=1;entryY=0.3333333333333333;entryDx=0;entryDy=0;entryPerimeter=0;dashed=1;" parent="1" source="a8boqiQT6ixFuTlEnx7N-12" target="a8boqiQT6ixFuTlEnx7N-2" edge="1">
          <mxGeometry relative="1" as="geometry" />
        </mxCell>
        <mxCell id="a8boqiQT6ixFuTlEnx7N-78" style="edgeStyle=orthogonalEdgeStyle;rounded=0;orthogonalLoop=1;jettySize=auto;html=1;entryX=1;entryY=0.5;entryDx=0;entryDy=0;dashed=1;" parent="1" source="a8boqiQT6ixFuTlEnx7N-77" target="a8boqiQT6ixFuTlEnx7N-45" edge="1">
          <mxGeometry relative="1" as="geometry" />
        </mxCell>
        <mxCell id="a8boqiQT6ixFuTlEnx7N-77" value="Visualizar matérias e notas" style="html=1;overflow=block;blockSpacing=1;whiteSpace=wrap;ellipse;fontSize=13;spacing=0;strokeColor=#unset;rounded=1;absoluteArcSize=1;arcSize=12;fillColor=#unset;strokeWidth=NaN;lucidId=pTag.v2tSQDk;fontColor=#FFFFFF;dashed=1;" parent="1" vertex="1">
          <mxGeometry x="1120" y="2069" width="120" height="90" as="geometry" />
        </mxCell>
        <mxCell id="a8boqiQT6ixFuTlEnx7N-81" style="edgeStyle=orthogonalEdgeStyle;rounded=0;orthogonalLoop=1;jettySize=auto;html=1;dashed=1;" parent="1" source="a8boqiQT6ixFuTlEnx7N-80" edge="1">
          <mxGeometry relative="1" as="geometry">
            <mxPoint x="-800" y="1820" as="targetPoint" />
          </mxGeometry>
        </mxCell>
        <mxCell id="a8boqiQT6ixFuTlEnx7N-80" value="Visualizar central de soluções" style="html=1;overflow=block;blockSpacing=1;whiteSpace=wrap;ellipse;fontSize=13;spacing=0;strokeColor=#unset;rounded=1;absoluteArcSize=1;arcSize=12;fillColor=#unset;strokeWidth=NaN;lucidId=pTag.v2tSQDk;fontColor=#FFFFFF;dashed=1;" parent="1" vertex="1">
          <mxGeometry x="-860" y="1889" width="120" height="90" as="geometry" />
        </mxCell>
        <mxCell id="a8boqiQT6ixFuTlEnx7N-85" style="edgeStyle=orthogonalEdgeStyle;rounded=0;orthogonalLoop=1;jettySize=auto;html=1;dashed=1;" parent="1" source="a8boqiQT6ixFuTlEnx7N-83" target="a8boqiQT6ixFuTlEnx7N-80" edge="1">
          <mxGeometry relative="1" as="geometry" />
        </mxCell>
        <mxCell id="a8boqiQT6ixFuTlEnx7N-83" value="Visualizar requerimentos disponiveis" style="html=1;overflow=block;blockSpacing=1;whiteSpace=wrap;ellipse;fontSize=13;spacing=0;strokeColor=#unset;rounded=1;absoluteArcSize=1;arcSize=12;fillColor=#unset;strokeWidth=NaN;lucidId=pTag.v2tSQDk;fontColor=#FFFFFF;dashed=1;" parent="1" vertex="1">
          <mxGeometry x="-780" y="2069" width="120" height="90" as="geometry" />
        </mxCell>
        <mxCell id="a8boqiQT6ixFuTlEnx7N-86" style="edgeStyle=orthogonalEdgeStyle;rounded=0;orthogonalLoop=1;jettySize=auto;html=1;dashed=1;" parent="1" source="a8boqiQT6ixFuTlEnx7N-84" target="a8boqiQT6ixFuTlEnx7N-80" edge="1">
          <mxGeometry relative="1" as="geometry" />
        </mxCell>
        <mxCell id="a8boqiQT6ixFuTlEnx7N-84" value="Visualizar requerimentos solicitados" style="html=1;overflow=block;blockSpacing=1;whiteSpace=wrap;ellipse;fontSize=13;spacing=0;strokeColor=#unset;rounded=1;absoluteArcSize=1;arcSize=12;fillColor=#unset;strokeWidth=NaN;lucidId=pTag.v2tSQDk;fontColor=#FFFFFF;dashed=1;" parent="1" vertex="1">
          <mxGeometry x="-950" y="2069" width="120" height="90" as="geometry" />
        </mxCell>
        <mxCell id="a8boqiQT6ixFuTlEnx7N-93" style="edgeStyle=orthogonalEdgeStyle;rounded=0;orthogonalLoop=1;jettySize=auto;html=1;entryX=0;entryY=0.5;entryDx=0;entryDy=0;exitX=1.009;exitY=0.544;exitDx=0;exitDy=0;exitPerimeter=0;dashed=1;" parent="1" source="a8boqiQT6ixFuTlEnx7N-87" target="a8boqiQT6ixFuTlEnx7N-16" edge="1">
          <mxGeometry relative="1" as="geometry">
            <Array as="points">
              <mxPoint x="-870" y="1319.5" />
              <mxPoint x="-870" y="1408.5" />
            </Array>
          </mxGeometry>
        </mxCell>
        <mxCell id="NqlKXNKVfOx6mDHNR92Q-21" value="&amp;lt;&amp;lt;include&amp;gt;&amp;gt;" style="edgeLabel;html=1;align=center;verticalAlign=middle;resizable=0;points=[];" vertex="1" connectable="0" parent="a8boqiQT6ixFuTlEnx7N-93">
          <mxGeometry x="-0.6356" y="-1" relative="1" as="geometry">
            <mxPoint as="offset" />
          </mxGeometry>
        </mxCell>
        <mxCell id="a8boqiQT6ixFuTlEnx7N-87" value="Acessar faturas a vencer" style="html=1;overflow=block;blockSpacing=1;whiteSpace=wrap;ellipse;fontSize=13;spacing=0;strokeColor=#unset;rounded=1;absoluteArcSize=1;arcSize=12;fillColor=#unset;strokeWidth=NaN;lucidId=YIag6XzU.~t0;fontColor=#FFFFFF;dashed=1;" parent="1" vertex="1">
          <mxGeometry x="-1060" y="1270.5" width="120" height="90" as="geometry" />
        </mxCell>
        <mxCell id="a8boqiQT6ixFuTlEnx7N-90" style="edgeStyle=orthogonalEdgeStyle;rounded=0;orthogonalLoop=1;jettySize=auto;html=1;entryX=0;entryY=0.5;entryDx=0;entryDy=0;dashed=1;" parent="1" source="a8boqiQT6ixFuTlEnx7N-88" target="a8boqiQT6ixFuTlEnx7N-16" edge="1">
          <mxGeometry relative="1" as="geometry">
            <Array as="points">
              <mxPoint x="-870" y="1488.5" />
              <mxPoint x="-870" y="1408.5" />
            </Array>
          </mxGeometry>
        </mxCell>
        <mxCell id="NqlKXNKVfOx6mDHNR92Q-22" value="&amp;lt;&amp;lt;include&amp;gt;&amp;gt;" style="edgeLabel;html=1;align=center;verticalAlign=middle;resizable=0;points=[];" vertex="1" connectable="0" parent="a8boqiQT6ixFuTlEnx7N-90">
          <mxGeometry x="-0.595" y="2" relative="1" as="geometry">
            <mxPoint as="offset" />
          </mxGeometry>
        </mxCell>
        <mxCell id="a8boqiQT6ixFuTlEnx7N-88" value="Acessar faturas pagas" style="html=1;overflow=block;blockSpacing=1;whiteSpace=wrap;ellipse;fontSize=13;spacing=0;strokeColor=#unset;rounded=1;absoluteArcSize=1;arcSize=12;fillColor=#unset;strokeWidth=NaN;lucidId=YIag6XzU.~t0;fontColor=#FFFFFF;dashed=1;" parent="1" vertex="1">
          <mxGeometry x="-1050" y="1443.5" width="120" height="90" as="geometry" />
        </mxCell>
        <mxCell id="a8boqiQT6ixFuTlEnx7N-92" style="edgeStyle=orthogonalEdgeStyle;rounded=0;orthogonalLoop=1;jettySize=auto;html=1;entryX=0;entryY=0.3333333333333333;entryDx=0;entryDy=0;entryPerimeter=0;exitX=1;exitY=0.5;exitDx=0;exitDy=0;dashed=1;" parent="1" source="a8boqiQT6ixFuTlEnx7N-16" target="a8boqiQT6ixFuTlEnx7N-2" edge="1">
          <mxGeometry relative="1" as="geometry">
            <Array as="points">
              <mxPoint x="-700" y="1420" />
              <mxPoint x="-500" y="1420" />
              <mxPoint x="-500" y="1364" />
            </Array>
          </mxGeometry>
        </mxCell>
        <mxCell id="a8boqiQT6ixFuTlEnx7N-97" style="edgeStyle=orthogonalEdgeStyle;rounded=0;orthogonalLoop=1;jettySize=auto;html=1;entryX=0;entryY=0.5;entryDx=0;entryDy=0;dashed=1;" parent="1" source="a8boqiQT6ixFuTlEnx7N-94" target="a8boqiQT6ixFuTlEnx7N-17" edge="1">
          <mxGeometry relative="1" as="geometry" />
        </mxCell>
        <mxCell id="NqlKXNKVfOx6mDHNR92Q-19" value="&amp;lt;&amp;lt;include&amp;gt;&amp;gt;" style="edgeLabel;html=1;align=center;verticalAlign=middle;resizable=0;points=[];" vertex="1" connectable="0" parent="a8boqiQT6ixFuTlEnx7N-97">
          <mxGeometry x="-0.6044" relative="1" as="geometry">
            <mxPoint as="offset" />
          </mxGeometry>
        </mxCell>
        <mxCell id="a8boqiQT6ixFuTlEnx7N-94" value="Avaliar curso engenharia de software" style="html=1;overflow=block;blockSpacing=1;whiteSpace=wrap;ellipse;fontSize=13;spacing=0;strokeColor=#unset;rounded=1;absoluteArcSize=1;arcSize=12;fillColor=#unset;strokeWidth=NaN;lucidId=_IagbeA8bNs2;fontColor=#FFFFFF;dashed=1;" parent="1" vertex="1">
          <mxGeometry x="-1070" y="950" width="120" height="90" as="geometry" />
        </mxCell>
        <mxCell id="a8boqiQT6ixFuTlEnx7N-100" style="edgeStyle=orthogonalEdgeStyle;rounded=0;orthogonalLoop=1;jettySize=auto;html=1;entryX=0;entryY=0.5;entryDx=0;entryDy=0;dashed=1;" parent="1" source="a8boqiQT6ixFuTlEnx7N-98" target="a8boqiQT6ixFuTlEnx7N-17" edge="1">
          <mxGeometry relative="1" as="geometry" />
        </mxCell>
        <mxCell id="NqlKXNKVfOx6mDHNR92Q-20" value="&amp;lt;&amp;lt;include&amp;gt;&amp;gt;" style="edgeLabel;html=1;align=center;verticalAlign=middle;resizable=0;points=[];" vertex="1" connectable="0" parent="a8boqiQT6ixFuTlEnx7N-100">
          <mxGeometry x="-0.6276" relative="1" as="geometry">
            <mxPoint as="offset" />
          </mxGeometry>
        </mxCell>
        <mxCell id="a8boqiQT6ixFuTlEnx7N-98" value="Avaliar cada professor" style="html=1;overflow=block;blockSpacing=1;whiteSpace=wrap;ellipse;fontSize=13;spacing=0;strokeColor=#unset;rounded=1;absoluteArcSize=1;arcSize=12;fillColor=#unset;strokeWidth=NaN;lucidId=_IagbeA8bNs2;fontColor=#FFFFFF;dashed=1;" parent="1" vertex="1">
          <mxGeometry x="-1070" y="1120" width="120" height="90" as="geometry" />
        </mxCell>
        <mxCell id="a8boqiQT6ixFuTlEnx7N-101" style="edgeStyle=orthogonalEdgeStyle;rounded=0;orthogonalLoop=1;jettySize=auto;html=1;entryX=0;entryY=0.3333333333333333;entryDx=0;entryDy=0;entryPerimeter=0;dashed=1;" parent="1" source="a8boqiQT6ixFuTlEnx7N-17" target="a8boqiQT6ixFuTlEnx7N-2" edge="1">
          <mxGeometry relative="1" as="geometry">
            <Array as="points">
              <mxPoint x="-500" y="1094" />
              <mxPoint x="-500" y="1364" />
            </Array>
          </mxGeometry>
        </mxCell>
        <mxCell id="a8boqiQT6ixFuTlEnx7N-104" style="edgeStyle=orthogonalEdgeStyle;rounded=0;orthogonalLoop=1;jettySize=auto;html=1;entryX=0;entryY=0.5;entryDx=0;entryDy=0;dashed=1;" parent="1" source="a8boqiQT6ixFuTlEnx7N-102" target="a8boqiQT6ixFuTlEnx7N-18" edge="1">
          <mxGeometry relative="1" as="geometry" />
        </mxCell>
        <mxCell id="NqlKXNKVfOx6mDHNR92Q-18" value=",,&amp;lt;&amp;lt;include&amp;gt;&amp;gt;" style="edgeLabel;html=1;align=center;verticalAlign=middle;resizable=0;points=[];" vertex="1" connectable="0" parent="a8boqiQT6ixFuTlEnx7N-104">
          <mxGeometry x="-0.3" y="1" relative="1" as="geometry">
            <mxPoint as="offset" />
          </mxGeometry>
        </mxCell>
        <mxCell id="a8boqiQT6ixFuTlEnx7N-102" value="Emitir relatórios" style="html=1;overflow=block;blockSpacing=1;whiteSpace=wrap;ellipse;fontSize=13;spacing=0;strokeColor=#unset;rounded=1;absoluteArcSize=1;arcSize=12;fillColor=#unset;strokeWidth=NaN;lucidId=kJag4-GjH_~T;fontColor=#FFFFFF;dashed=1;" parent="1" vertex="1">
          <mxGeometry x="-1070" y="800" width="120" height="90" as="geometry" />
        </mxCell>
        <mxCell id="a8boqiQT6ixFuTlEnx7N-105" style="edgeStyle=orthogonalEdgeStyle;rounded=0;orthogonalLoop=1;jettySize=auto;html=1;entryX=0;entryY=0.3333333333333333;entryDx=0;entryDy=0;entryPerimeter=0;exitX=1;exitY=0.5;exitDx=0;exitDy=0;dashed=1;" parent="1" source="a8boqiQT6ixFuTlEnx7N-18" target="a8boqiQT6ixFuTlEnx7N-2" edge="1">
          <mxGeometry relative="1" as="geometry">
            <Array as="points">
              <mxPoint x="-710" y="840" />
              <mxPoint x="-500" y="840" />
              <mxPoint x="-500" y="1364" />
            </Array>
          </mxGeometry>
        </mxCell>
        <mxCell id="a8boqiQT6ixFuTlEnx7N-153" style="edgeStyle=orthogonalEdgeStyle;rounded=0;orthogonalLoop=1;jettySize=auto;html=1;exitX=1;exitY=0.5;exitDx=0;exitDy=0;entryX=0;entryY=0.5;entryDx=0;entryDy=0;dashed=1;" parent="1" source="a8boqiQT6ixFuTlEnx7N-106" target="a8boqiQT6ixFuTlEnx7N-19" edge="1">
          <mxGeometry relative="1" as="geometry">
            <Array as="points">
              <mxPoint x="-960" y="420" />
            </Array>
          </mxGeometry>
        </mxCell>
        <mxCell id="NqlKXNKVfOx6mDHNR92Q-17" value="&amp;lt;&amp;lt;include&amp;gt;&amp;gt;" style="edgeLabel;html=1;align=center;verticalAlign=middle;resizable=0;points=[];" vertex="1" connectable="0" parent="a8boqiQT6ixFuTlEnx7N-153">
          <mxGeometry x="-0.8136" y="-1" relative="1" as="geometry">
            <mxPoint as="offset" />
          </mxGeometry>
        </mxCell>
        <mxCell id="a8boqiQT6ixFuTlEnx7N-106" value="Acessar Webmail" style="html=1;overflow=block;blockSpacing=1;whiteSpace=wrap;ellipse;fontSize=13;spacing=0;strokeColor=#unset;rounded=1;absoluteArcSize=1;arcSize=12;fillColor=#unset;strokeWidth=NaN;lucidId=DJagKf5utD9f;fontColor=#FFFFFF;dashed=1;" parent="1" vertex="1">
          <mxGeometry x="-1080" y="420" width="120" height="90" as="geometry" />
        </mxCell>
        <mxCell id="a8boqiQT6ixFuTlEnx7N-135" style="edgeStyle=orthogonalEdgeStyle;rounded=0;orthogonalLoop=1;jettySize=auto;html=1;entryX=0;entryY=0.5;entryDx=0;entryDy=0;dashed=1;" parent="1" source="a8boqiQT6ixFuTlEnx7N-107" target="a8boqiQT6ixFuTlEnx7N-19" edge="1">
          <mxGeometry relative="1" as="geometry">
            <Array as="points">
              <mxPoint x="-930" y="345" />
              <mxPoint x="-930" y="420" />
            </Array>
          </mxGeometry>
        </mxCell>
        <mxCell id="NqlKXNKVfOx6mDHNR92Q-3" value="&amp;lt;&amp;lt;include&amp;gt;&amp;gt;" style="edgeLabel;html=1;align=center;verticalAlign=middle;resizable=0;points=[];" vertex="1" connectable="0" parent="a8boqiQT6ixFuTlEnx7N-135">
          <mxGeometry x="-0.9202" y="2" relative="1" as="geometry">
            <mxPoint as="offset" />
          </mxGeometry>
        </mxCell>
        <mxCell id="a8boqiQT6ixFuTlEnx7N-107" value="Acessar alteração de senha" style="html=1;overflow=block;blockSpacing=1;whiteSpace=wrap;ellipse;fontSize=13;spacing=0;strokeColor=#unset;rounded=1;absoluteArcSize=1;arcSize=12;fillColor=#unset;strokeWidth=NaN;lucidId=DJagKf5utD9f;fontColor=#FFFFFF;dashed=1;" parent="1" vertex="1">
          <mxGeometry x="-1080" y="300" width="120" height="90" as="geometry" />
        </mxCell>
        <mxCell id="a8boqiQT6ixFuTlEnx7N-136" style="edgeStyle=orthogonalEdgeStyle;rounded=0;orthogonalLoop=1;jettySize=auto;html=1;entryX=0;entryY=0.5;entryDx=0;entryDy=0;dashed=1;" parent="1" target="a8boqiQT6ixFuTlEnx7N-19" edge="1">
          <mxGeometry relative="1" as="geometry">
            <mxPoint x="-970" y="225" as="sourcePoint" />
            <mxPoint x="-570" y="420" as="targetPoint" />
            <Array as="points">
              <mxPoint x="-930" y="225" />
              <mxPoint x="-930" y="420" />
            </Array>
          </mxGeometry>
        </mxCell>
        <mxCell id="NqlKXNKVfOx6mDHNR92Q-2" value="&amp;lt;&amp;lt;include&amp;gt;&amp;gt;" style="edgeLabel;html=1;align=center;verticalAlign=middle;resizable=0;points=[];" vertex="1" connectable="0" parent="a8boqiQT6ixFuTlEnx7N-136">
          <mxGeometry x="-0.9263" y="2" relative="1" as="geometry">
            <mxPoint as="offset" />
          </mxGeometry>
        </mxCell>
        <mxCell id="a8boqiQT6ixFuTlEnx7N-108" value="Acessar ambiente AVA" style="html=1;overflow=block;blockSpacing=1;whiteSpace=wrap;ellipse;fontSize=13;spacing=0;strokeColor=#unset;rounded=1;absoluteArcSize=1;arcSize=12;fillColor=#unset;strokeWidth=NaN;lucidId=DJagKf5utD9f;fontColor=#FFFFFF;dashed=1;" parent="1" vertex="1">
          <mxGeometry x="-1080" y="180" width="120" height="90" as="geometry" />
        </mxCell>
        <mxCell id="a8boqiQT6ixFuTlEnx7N-137" style="edgeStyle=orthogonalEdgeStyle;rounded=0;orthogonalLoop=1;jettySize=auto;html=1;entryX=0;entryY=0.5;entryDx=0;entryDy=0;dashed=1;" parent="1" source="a8boqiQT6ixFuTlEnx7N-109" target="a8boqiQT6ixFuTlEnx7N-19" edge="1">
          <mxGeometry relative="1" as="geometry">
            <mxPoint x="-580" y="420" as="targetPoint" />
            <Array as="points">
              <mxPoint x="-750" y="225" />
              <mxPoint x="-750" y="420" />
            </Array>
          </mxGeometry>
        </mxCell>
        <mxCell id="NqlKXNKVfOx6mDHNR92Q-1" value="&amp;lt;&amp;lt;include&amp;gt;&amp;gt;" style="edgeLabel;html=1;align=center;verticalAlign=middle;resizable=0;points=[];" vertex="1" connectable="0" parent="a8boqiQT6ixFuTlEnx7N-137">
          <mxGeometry x="-0.4311" y="1" relative="1" as="geometry">
            <mxPoint y="1" as="offset" />
          </mxGeometry>
        </mxCell>
        <mxCell id="a8boqiQT6ixFuTlEnx7N-109" value="Acessar biblioteca" style="html=1;overflow=block;blockSpacing=1;whiteSpace=wrap;ellipse;fontSize=13;spacing=0;strokeColor=#unset;rounded=1;absoluteArcSize=1;arcSize=12;fillColor=#unset;strokeWidth=NaN;lucidId=DJagKf5utD9f;fontColor=#FFFFFF;dashed=1;" parent="1" vertex="1">
          <mxGeometry x="-910" y="180" width="120" height="90" as="geometry" />
        </mxCell>
        <mxCell id="a8boqiQT6ixFuTlEnx7N-154" style="edgeStyle=orthogonalEdgeStyle;rounded=0;orthogonalLoop=1;jettySize=auto;html=1;exitX=1;exitY=1;exitDx=0;exitDy=0;entryX=0;entryY=0.5;entryDx=0;entryDy=0;dashed=1;" parent="1" source="a8boqiQT6ixFuTlEnx7N-110" target="a8boqiQT6ixFuTlEnx7N-19" edge="1">
          <mxGeometry relative="1" as="geometry">
            <Array as="points">
              <mxPoint x="-660" y="257" />
              <mxPoint x="-660" y="420" />
            </Array>
          </mxGeometry>
        </mxCell>
        <mxCell id="NqlKXNKVfOx6mDHNR92Q-4" value="&amp;lt;&amp;lt;include&amp;gt;&amp;gt;" style="edgeLabel;html=1;align=center;verticalAlign=middle;resizable=0;points=[];" vertex="1" connectable="0" parent="a8boqiQT6ixFuTlEnx7N-154">
          <mxGeometry x="-0.2909" y="2" relative="1" as="geometry">
            <mxPoint as="offset" />
          </mxGeometry>
        </mxCell>
        <mxCell id="a8boqiQT6ixFuTlEnx7N-110" value="Acessar biblioteca virtual" style="html=1;overflow=block;blockSpacing=1;whiteSpace=wrap;ellipse;fontSize=13;spacing=0;strokeColor=#unset;rounded=1;absoluteArcSize=1;arcSize=12;fillColor=#unset;strokeWidth=NaN;lucidId=DJagKf5utD9f;fontColor=#FFFFFF;dashed=1;" parent="1" vertex="1">
          <mxGeometry x="-720" y="180" width="120" height="90" as="geometry" />
        </mxCell>
        <mxCell id="a8boqiQT6ixFuTlEnx7N-111" value="Acessar calendário academico" style="html=1;overflow=block;blockSpacing=1;whiteSpace=wrap;ellipse;fontSize=13;spacing=0;strokeColor=#unset;rounded=1;absoluteArcSize=1;arcSize=12;fillColor=#unset;strokeWidth=NaN;lucidId=DJagKf5utD9f;fontColor=#FFFFFF;dashed=1;" parent="1" vertex="1">
          <mxGeometry x="-524" y="180" width="120" height="90" as="geometry" />
        </mxCell>
        <mxCell id="a8boqiQT6ixFuTlEnx7N-140" style="edgeStyle=orthogonalEdgeStyle;rounded=0;orthogonalLoop=1;jettySize=auto;html=1;dashed=1;" parent="1" source="a8boqiQT6ixFuTlEnx7N-111" target="a8boqiQT6ixFuTlEnx7N-19" edge="1">
          <mxGeometry relative="1" as="geometry">
            <Array as="points">
              <mxPoint x="-464" y="317" />
              <mxPoint x="-495" y="317" />
            </Array>
          </mxGeometry>
        </mxCell>
        <mxCell id="NqlKXNKVfOx6mDHNR92Q-5" value="&amp;lt;&amp;lt;include&amp;gt;&amp;gt;" style="edgeLabel;html=1;align=center;verticalAlign=middle;resizable=0;points=[];" vertex="1" connectable="0" parent="a8boqiQT6ixFuTlEnx7N-140">
          <mxGeometry x="-0.328" relative="1" as="geometry">
            <mxPoint as="offset" />
          </mxGeometry>
        </mxCell>
        <mxCell id="a8boqiQT6ixFuTlEnx7N-141" style="edgeStyle=orthogonalEdgeStyle;rounded=0;orthogonalLoop=1;jettySize=auto;html=1;exitX=0;exitY=0.5;exitDx=0;exitDy=0;entryX=1;entryY=0.5;entryDx=0;entryDy=0;dashed=1;" parent="1" source="a8boqiQT6ixFuTlEnx7N-112" target="a8boqiQT6ixFuTlEnx7N-19" edge="1">
          <mxGeometry relative="1" as="geometry" />
        </mxCell>
        <mxCell id="NqlKXNKVfOx6mDHNR92Q-6" value="&amp;lt;&amp;lt;include&amp;gt;&amp;gt;" style="edgeLabel;html=1;align=center;verticalAlign=middle;resizable=0;points=[];" vertex="1" connectable="0" parent="a8boqiQT6ixFuTlEnx7N-141">
          <mxGeometry x="0.0281" relative="1" as="geometry">
            <mxPoint as="offset" />
          </mxGeometry>
        </mxCell>
        <mxCell id="a8boqiQT6ixFuTlEnx7N-112" value="Acessar consulta de sala" style="html=1;overflow=block;blockSpacing=1;whiteSpace=wrap;ellipse;fontSize=13;spacing=0;strokeColor=#unset;rounded=1;absoluteArcSize=1;arcSize=12;fillColor=#unset;strokeWidth=NaN;lucidId=DJagKf5utD9f;fontColor=#FFFFFF;dashed=1;" parent="1" vertex="1">
          <mxGeometry x="-350" y="180" width="120" height="90" as="geometry" />
        </mxCell>
        <mxCell id="a8boqiQT6ixFuTlEnx7N-143" style="edgeStyle=orthogonalEdgeStyle;rounded=0;orthogonalLoop=1;jettySize=auto;html=1;exitX=0;exitY=1;exitDx=0;exitDy=0;entryX=1;entryY=0.5;entryDx=0;entryDy=0;dashed=1;" parent="1" source="a8boqiQT6ixFuTlEnx7N-113" target="a8boqiQT6ixFuTlEnx7N-19" edge="1">
          <mxGeometry relative="1" as="geometry">
            <Array as="points">
              <mxPoint x="-210" y="257" />
              <mxPoint x="-210" y="420" />
            </Array>
          </mxGeometry>
        </mxCell>
        <mxCell id="NqlKXNKVfOx6mDHNR92Q-7" value="&amp;lt;&amp;lt;include&amp;gt;&amp;gt;" style="edgeLabel;html=1;align=center;verticalAlign=middle;resizable=0;points=[];" vertex="1" connectable="0" parent="a8boqiQT6ixFuTlEnx7N-143">
          <mxGeometry x="-0.4604" relative="1" as="geometry">
            <mxPoint as="offset" />
          </mxGeometry>
        </mxCell>
        <mxCell id="a8boqiQT6ixFuTlEnx7N-113" value="Acessar documentos institucional" style="html=1;overflow=block;blockSpacing=1;whiteSpace=wrap;ellipse;fontSize=13;spacing=0;strokeColor=#unset;rounded=1;absoluteArcSize=1;arcSize=12;fillColor=#unset;strokeWidth=NaN;lucidId=DJagKf5utD9f;fontColor=#FFFFFF;dashed=1;" parent="1" vertex="1">
          <mxGeometry x="-180" y="180" width="120" height="90" as="geometry" />
        </mxCell>
        <mxCell id="a8boqiQT6ixFuTlEnx7N-144" style="edgeStyle=orthogonalEdgeStyle;rounded=0;orthogonalLoop=1;jettySize=auto;html=1;exitX=0;exitY=1;exitDx=0;exitDy=0;entryX=1;entryY=0.5;entryDx=0;entryDy=0;dashed=1;" parent="1" source="a8boqiQT6ixFuTlEnx7N-115" target="a8boqiQT6ixFuTlEnx7N-19" edge="1">
          <mxGeometry relative="1" as="geometry">
            <Array as="points">
              <mxPoint x="-50" y="257" />
              <mxPoint x="-50" y="420" />
            </Array>
          </mxGeometry>
        </mxCell>
        <mxCell id="NqlKXNKVfOx6mDHNR92Q-8" value="&amp;lt;&amp;lt;include&amp;gt;&amp;gt;" style="edgeLabel;html=1;align=center;verticalAlign=middle;resizable=0;points=[];" vertex="1" connectable="0" parent="a8boqiQT6ixFuTlEnx7N-144">
          <mxGeometry x="-0.5453" y="-2" relative="1" as="geometry">
            <mxPoint as="offset" />
          </mxGeometry>
        </mxCell>
        <mxCell id="a8boqiQT6ixFuTlEnx7N-115" value="Acessar extrato financeiro" style="html=1;overflow=block;blockSpacing=1;whiteSpace=wrap;ellipse;fontSize=13;spacing=0;strokeColor=#unset;rounded=1;absoluteArcSize=1;arcSize=12;fillColor=#unset;strokeWidth=NaN;lucidId=DJagKf5utD9f;fontColor=#FFFFFF;dashed=1;" parent="1" vertex="1">
          <mxGeometry x="-20" y="180" width="120" height="90" as="geometry" />
        </mxCell>
        <mxCell id="a8boqiQT6ixFuTlEnx7N-145" style="edgeStyle=orthogonalEdgeStyle;rounded=0;orthogonalLoop=1;jettySize=auto;html=1;exitX=0;exitY=0.5;exitDx=0;exitDy=0;dashed=1;" parent="1" source="a8boqiQT6ixFuTlEnx7N-118" target="a8boqiQT6ixFuTlEnx7N-19" edge="1">
          <mxGeometry relative="1" as="geometry">
            <Array as="points">
              <mxPoint x="50" y="355" />
              <mxPoint x="50" y="420" />
            </Array>
          </mxGeometry>
        </mxCell>
        <mxCell id="NqlKXNKVfOx6mDHNR92Q-9" value="&amp;lt;&amp;lt;include&amp;gt;&amp;gt;" style="edgeLabel;html=1;align=center;verticalAlign=middle;resizable=0;points=[];" vertex="1" connectable="0" parent="a8boqiQT6ixFuTlEnx7N-145">
          <mxGeometry x="-0.3615" y="-2" relative="1" as="geometry">
            <mxPoint x="18" y="2" as="offset" />
          </mxGeometry>
        </mxCell>
        <mxCell id="a8boqiQT6ixFuTlEnx7N-118" value="Acessar formatura" style="html=1;overflow=block;blockSpacing=1;whiteSpace=wrap;ellipse;fontSize=13;spacing=0;strokeColor=#unset;rounded=1;absoluteArcSize=1;arcSize=12;fillColor=#unset;strokeWidth=NaN;lucidId=DJagKf5utD9f;fontColor=#FFFFFF;dashed=1;" parent="1" vertex="1">
          <mxGeometry x="-10" y="310" width="120" height="90" as="geometry" />
        </mxCell>
        <mxCell id="a8boqiQT6ixFuTlEnx7N-146" style="edgeStyle=orthogonalEdgeStyle;rounded=0;orthogonalLoop=1;jettySize=auto;html=1;exitX=0;exitY=0.5;exitDx=0;exitDy=0;entryX=1;entryY=0.5;entryDx=0;entryDy=0;dashed=1;" parent="1" source="a8boqiQT6ixFuTlEnx7N-120" target="a8boqiQT6ixFuTlEnx7N-19" edge="1">
          <mxGeometry relative="1" as="geometry">
            <Array as="points">
              <mxPoint x="-50" y="495" />
              <mxPoint x="-50" y="420" />
            </Array>
          </mxGeometry>
        </mxCell>
        <mxCell id="NqlKXNKVfOx6mDHNR92Q-10" value="&amp;lt;&amp;lt;include&amp;gt;&amp;gt;" style="edgeLabel;html=1;align=center;verticalAlign=middle;resizable=0;points=[];" vertex="1" connectable="0" parent="a8boqiQT6ixFuTlEnx7N-146">
          <mxGeometry x="-0.9284" y="1" relative="1" as="geometry">
            <mxPoint as="offset" />
          </mxGeometry>
        </mxCell>
        <mxCell id="a8boqiQT6ixFuTlEnx7N-120" value="Acessar minha biblioteca juridica&amp;nbsp;" style="html=1;overflow=block;blockSpacing=1;whiteSpace=wrap;ellipse;fontSize=13;spacing=0;strokeColor=#unset;rounded=1;absoluteArcSize=1;arcSize=12;fillColor=#unset;strokeWidth=NaN;lucidId=DJagKf5utD9f;fontColor=#FFFFFF;dashed=1;" parent="1" vertex="1">
          <mxGeometry x="-10" y="450" width="120" height="90" as="geometry" />
        </mxCell>
        <mxCell id="a8boqiQT6ixFuTlEnx7N-147" style="edgeStyle=orthogonalEdgeStyle;rounded=0;orthogonalLoop=1;jettySize=auto;html=1;exitX=0;exitY=0;exitDx=0;exitDy=0;entryX=1;entryY=0.5;entryDx=0;entryDy=0;dashed=1;" parent="1" source="a8boqiQT6ixFuTlEnx7N-125" target="a8boqiQT6ixFuTlEnx7N-19" edge="1">
          <mxGeometry relative="1" as="geometry">
            <Array as="points">
              <mxPoint x="-50" y="583" />
              <mxPoint x="-50" y="420" />
            </Array>
          </mxGeometry>
        </mxCell>
        <mxCell id="NqlKXNKVfOx6mDHNR92Q-11" value="&amp;lt;&amp;lt;include&amp;gt;&amp;gt;" style="edgeLabel;html=1;align=center;verticalAlign=middle;resizable=0;points=[];" vertex="1" connectable="0" parent="a8boqiQT6ixFuTlEnx7N-147">
          <mxGeometry x="-0.9146" relative="1" as="geometry">
            <mxPoint as="offset" />
          </mxGeometry>
        </mxCell>
        <mxCell id="a8boqiQT6ixFuTlEnx7N-125" value="Acessar ouvidoria" style="html=1;overflow=block;blockSpacing=1;whiteSpace=wrap;ellipse;fontSize=13;spacing=0;strokeColor=#unset;rounded=1;absoluteArcSize=1;arcSize=12;fillColor=#unset;strokeWidth=NaN;lucidId=DJagKf5utD9f;fontColor=#FFFFFF;dashed=1;" parent="1" vertex="1">
          <mxGeometry x="-10" y="570" width="120" height="90" as="geometry" />
        </mxCell>
        <mxCell id="a8boqiQT6ixFuTlEnx7N-148" style="edgeStyle=orthogonalEdgeStyle;rounded=0;orthogonalLoop=1;jettySize=auto;html=1;exitX=0;exitY=0;exitDx=0;exitDy=0;entryX=1;entryY=0.5;entryDx=0;entryDy=0;dashed=1;" parent="1" source="a8boqiQT6ixFuTlEnx7N-126" target="a8boqiQT6ixFuTlEnx7N-19" edge="1">
          <mxGeometry relative="1" as="geometry">
            <Array as="points">
              <mxPoint x="-280" y="583" />
              <mxPoint x="-280" y="420" />
            </Array>
          </mxGeometry>
        </mxCell>
        <mxCell id="NqlKXNKVfOx6mDHNR92Q-12" value="&amp;lt;&amp;lt;include&amp;gt;&amp;gt;" style="edgeLabel;html=1;align=center;verticalAlign=middle;resizable=0;points=[];" vertex="1" connectable="0" parent="a8boqiQT6ixFuTlEnx7N-148">
          <mxGeometry x="-0.7652" y="-3" relative="1" as="geometry">
            <mxPoint as="offset" />
          </mxGeometry>
        </mxCell>
        <mxCell id="a8boqiQT6ixFuTlEnx7N-126" value="Acessar PE" style="html=1;overflow=block;blockSpacing=1;whiteSpace=wrap;ellipse;fontSize=13;spacing=0;strokeColor=#unset;rounded=1;absoluteArcSize=1;arcSize=12;fillColor=#unset;strokeWidth=NaN;lucidId=DJagKf5utD9f;fontColor=#FFFFFF;dashed=1;" parent="1" vertex="1">
          <mxGeometry x="-230" y="570" width="120" height="90" as="geometry" />
        </mxCell>
        <mxCell id="a8boqiQT6ixFuTlEnx7N-149" style="edgeStyle=orthogonalEdgeStyle;rounded=0;orthogonalLoop=1;jettySize=auto;html=1;exitX=0.5;exitY=0;exitDx=0;exitDy=0;entryX=1;entryY=0.5;entryDx=0;entryDy=0;dashed=1;" parent="1" source="a8boqiQT6ixFuTlEnx7N-127" target="a8boqiQT6ixFuTlEnx7N-19" edge="1">
          <mxGeometry relative="1" as="geometry" />
        </mxCell>
        <mxCell id="NqlKXNKVfOx6mDHNR92Q-13" value="&amp;lt;&amp;lt;include&amp;gt;&amp;gt;" style="edgeLabel;html=1;align=center;verticalAlign=middle;resizable=0;points=[];" vertex="1" connectable="0" parent="a8boqiQT6ixFuTlEnx7N-149">
          <mxGeometry x="-0.2095" relative="1" as="geometry">
            <mxPoint as="offset" />
          </mxGeometry>
        </mxCell>
        <mxCell id="a8boqiQT6ixFuTlEnx7N-127" value="Acessar Portal de periodicos" style="html=1;overflow=block;blockSpacing=1;whiteSpace=wrap;ellipse;fontSize=13;spacing=0;strokeColor=#unset;rounded=1;absoluteArcSize=1;arcSize=12;fillColor=#unset;strokeWidth=NaN;lucidId=DJagKf5utD9f;fontColor=#FFFFFF;dashed=1;" parent="1" vertex="1">
          <mxGeometry x="-455" y="570" width="120" height="90" as="geometry" />
        </mxCell>
        <mxCell id="a8boqiQT6ixFuTlEnx7N-150" style="edgeStyle=orthogonalEdgeStyle;rounded=0;orthogonalLoop=1;jettySize=auto;html=1;exitX=0.5;exitY=0;exitDx=0;exitDy=0;dashed=1;" parent="1" source="a8boqiQT6ixFuTlEnx7N-128" target="a8boqiQT6ixFuTlEnx7N-19" edge="1">
          <mxGeometry relative="1" as="geometry">
            <Array as="points">
              <mxPoint x="-580" y="530" />
              <mxPoint x="-495" y="530" />
            </Array>
          </mxGeometry>
        </mxCell>
        <mxCell id="NqlKXNKVfOx6mDHNR92Q-14" value="&amp;lt;&amp;lt;include&amp;gt;&amp;gt;" style="edgeLabel;html=1;align=center;verticalAlign=middle;resizable=0;points=[];" vertex="1" connectable="0" parent="a8boqiQT6ixFuTlEnx7N-150">
          <mxGeometry x="-0.6846" y="-2" relative="1" as="geometry">
            <mxPoint as="offset" />
          </mxGeometry>
        </mxCell>
        <mxCell id="a8boqiQT6ixFuTlEnx7N-128" value="Acessar projeto comunitário" style="html=1;overflow=block;blockSpacing=1;whiteSpace=wrap;ellipse;fontSize=13;spacing=0;strokeColor=#unset;rounded=1;absoluteArcSize=1;arcSize=12;fillColor=#unset;strokeWidth=NaN;lucidId=DJagKf5utD9f;fontColor=#FFFFFF;dashed=1;" parent="1" vertex="1">
          <mxGeometry x="-640" y="580" width="120" height="90" as="geometry" />
        </mxCell>
        <mxCell id="a8boqiQT6ixFuTlEnx7N-151" style="edgeStyle=orthogonalEdgeStyle;rounded=0;orthogonalLoop=1;jettySize=auto;html=1;exitX=1;exitY=0;exitDx=0;exitDy=0;entryX=0.5;entryY=1;entryDx=0;entryDy=0;dashed=1;" parent="1" source="a8boqiQT6ixFuTlEnx7N-129" target="a8boqiQT6ixFuTlEnx7N-19" edge="1">
          <mxGeometry relative="1" as="geometry">
            <Array as="points">
              <mxPoint x="-758" y="530" />
              <mxPoint x="-495" y="530" />
            </Array>
          </mxGeometry>
        </mxCell>
        <mxCell id="NqlKXNKVfOx6mDHNR92Q-15" value="&amp;lt;&amp;lt;include&amp;gt;&amp;gt;" style="edgeLabel;html=1;align=center;verticalAlign=middle;resizable=0;points=[];" vertex="1" connectable="0" parent="a8boqiQT6ixFuTlEnx7N-151">
          <mxGeometry x="-0.8508" y="2" relative="1" as="geometry">
            <mxPoint as="offset" />
          </mxGeometry>
        </mxCell>
        <mxCell id="a8boqiQT6ixFuTlEnx7N-129" value="Acessar quadro de horários" style="html=1;overflow=block;blockSpacing=1;whiteSpace=wrap;ellipse;fontSize=13;spacing=0;strokeColor=#unset;rounded=1;absoluteArcSize=1;arcSize=12;fillColor=#unset;strokeWidth=NaN;lucidId=DJagKf5utD9f;fontColor=#FFFFFF;dashed=1;" parent="1" vertex="1">
          <mxGeometry x="-860" y="580" width="120" height="90" as="geometry" />
        </mxCell>
        <mxCell id="a8boqiQT6ixFuTlEnx7N-152" style="edgeStyle=orthogonalEdgeStyle;rounded=0;orthogonalLoop=1;jettySize=auto;html=1;exitX=1;exitY=0;exitDx=0;exitDy=0;dashed=1;" parent="1" source="a8boqiQT6ixFuTlEnx7N-130" target="a8boqiQT6ixFuTlEnx7N-19" edge="1">
          <mxGeometry relative="1" as="geometry">
            <Array as="points">
              <mxPoint x="-958" y="530" />
              <mxPoint x="-495" y="530" />
            </Array>
          </mxGeometry>
        </mxCell>
        <mxCell id="NqlKXNKVfOx6mDHNR92Q-16" value="&amp;lt;&amp;lt;include&amp;gt;&amp;gt;" style="edgeLabel;html=1;align=center;verticalAlign=middle;resizable=0;points=[];" vertex="1" connectable="0" parent="a8boqiQT6ixFuTlEnx7N-152">
          <mxGeometry x="-0.8818" relative="1" as="geometry">
            <mxPoint as="offset" />
          </mxGeometry>
        </mxCell>
        <mxCell id="a8boqiQT6ixFuTlEnx7N-130" value="Acessar sala virtual" style="html=1;overflow=block;blockSpacing=1;whiteSpace=wrap;ellipse;fontSize=13;spacing=0;strokeColor=#unset;rounded=1;absoluteArcSize=1;arcSize=12;fillColor=#unset;strokeWidth=NaN;lucidId=DJagKf5utD9f;fontColor=#FFFFFF;dashed=1;" parent="1" vertex="1">
          <mxGeometry x="-1060" y="570" width="120" height="90" as="geometry" />
        </mxCell>
        <mxCell id="a8boqiQT6ixFuTlEnx7N-156" style="rounded=0;orthogonalLoop=1;jettySize=auto;html=1;exitX=0.5;exitY=1;exitDx=0;exitDy=0;entryX=0;entryY=0.3333333333333333;entryDx=0;entryDy=0;entryPerimeter=0;dashed=1;" parent="1" source="a8boqiQT6ixFuTlEnx7N-19" target="a8boqiQT6ixFuTlEnx7N-2" edge="1">
          <mxGeometry relative="1" as="geometry">
            <Array as="points">
              <mxPoint x="-500" y="1364" />
            </Array>
          </mxGeometry>
        </mxCell>
      </root>
    </mxGraphModel>
  </diagram>
</mxfile>
